<svg xmlns="http://www.w3.org/2000/svg" width="612" height="408" viewBox="0 0 612 408">
<g>
<path d="M 299.64 193.87 C298.35,195.08 295.66,196.34 293.67,196.67 C290.49,197.18 289.63,196.83 286.53,193.73 C284.59,191.79 283.00,189.23 283.00,188.05 C283.00,185.13 285.56,180.38 287.54,179.62 C290.96,178.31 296.76,179.02 299.37,181.07 C302.97,183.90 303.11,190.61 299.64,193.87 ZM 457.75 193.41 C454.82,196.68 451.26,197.38 447.38,195.44 C441.71,192.60 440.52,186.91 444.59,182.08 C446.68,179.60 447.94,179.00 451.13,179.00 C458.98,179.00 462.93,187.61 457.75,193.41 ZM 475.42 195.39 C474.55,195.73 471.39,196.00 468.41,196.00 L 462.97 196.00 L 463.09 187.50 L 463.21 179.00 L 468.42 179.00 C471.28,179.00 474.47,179.63 475.52,180.39 C477.19,181.61 477.27,182.12 476.16,184.54 C475.29,186.47 475.22,187.62 475.95,188.35 C477.57,189.97 477.21,194.71 475.42,195.39 ZM 399.00 193.50 C399.00,195.33 398.47,196.00 397.00,196.00 C395.16,196.00 395.00,195.33 395.00,187.50 L 395.00 179.00 L 400.85 179.00 C405.24,179.00 407.10,179.45 408.35,180.83 C410.41,183.11 410.45,185.91 408.46,188.75 C407.07,190.74 407.08,191.19 408.58,193.48 C410.16,195.90 410.15,196.00 408.14,196.00 C406.99,196.00 405.31,194.88 404.41,193.50 C403.51,192.12 401.92,191.00 400.88,191.00 C399.54,191.00 399.00,191.72 399.00,193.50 ZM 309.00 191.00 C309.00,194.69 308.62,196.00 307.56,196.00 C305.72,196.00 305.44,195.29 305.59,191.00 C305.66,189.07 305.78,185.59 305.86,183.25 C306.06,177.31 308.54,177.63 313.54,184.25 L 317.50 189.50 L 317.80 184.25 C318.06,179.82 318.41,179.00 320.05,179.00 C321.83,179.00 322.00,179.74 322.00,187.50 C322.00,195.21 321.82,196.00 320.09,196.00 C318.94,196.00 316.69,193.98 314.50,191.00 C312.48,188.25 310.42,186.00 309.91,186.00 C309.41,186.00 309.00,188.25 309.00,191.00 ZM 378.36 194.50 C378.05,195.32 376.90,196.00 375.81,196.00 C374.72,196.00 373.98,195.63 374.17,195.18 C378.41,184.73 381.73,179.00 383.54,179.00 C386.29,179.00 393.67,195.28 391.17,195.86 C390.33,196.06 389.10,195.49 388.46,194.61 C386.89,192.47 379.17,192.39 378.36,194.50 ZM 447.27 193.03 C450.08,195.66 452.58,195.51 455.55,192.55 C460.28,187.81 457.58,180.65 451.25,181.20 C444.40,181.78 442.20,188.32 447.27,193.03 ZM 340.00 195.05 C340.00,195.57 336.85,196.00 333.00,196.00 L 326.00 196.00 L 326.00 179.00 L 333.08 179.00 C338.30,179.00 340.06,179.33 339.76,180.25 C339.53,180.95 337.28,181.63 334.67,181.80 C330.82,182.06 330.00,182.45 330.00,184.05 C330.00,185.66 330.70,186.00 334.00,186.00 C336.89,186.00 338.00,186.42 338.00,187.50 C338.00,188.59 336.88,189.00 333.93,189.00 C330.28,189.00 329.89,189.23 330.18,191.25 C330.45,193.17 331.20,193.54 335.25,193.80 C337.86,193.97 340.00,194.53 340.00,195.05 ZM 423.20 190.25 C422.73,199.19 421.00,197.03 421.00,187.50 C421.00,177.22 422.34,176.46 426.28,184.50 C427.76,187.52 429.34,190.00 429.78,190.00 C430.22,190.00 431.84,187.52 433.37,184.50 C437.50,176.33 439.00,177.13 439.00,187.50 C439.00,192.50 438.59,196.00 438.00,196.00 C437.45,196.00 437.00,193.52 437.00,190.50 C437.00,187.48 436.62,185.00 436.15,185.00 C435.69,185.00 434.49,186.80 433.50,189.01 C430.55,195.53 429.66,195.63 426.41,189.74 L 423.50 184.50 ZM 357.91 194.51 C353.98,198.45 345.27,196.49 343.07,191.18 C341.54,187.47 343.09,181.56 346.01,179.99 C349.93,177.90 360.01,179.56 358.47,182.05 C358.14,182.58 356.10,182.72 353.91,182.37 C350.88,181.88 349.49,182.15 347.97,183.52 C345.96,185.35 345.43,188.55 346.79,190.69 C348.05,192.68 352.41,193.91 354.36,192.82 C355.33,192.28 356.85,192.11 357.74,192.45 C359.15,192.99 359.17,193.26 357.91,194.51 ZM 277.85 195.90 C272.86,197.64 269.28,196.67 266.61,192.85 C262.27,186.66 266.48,178.99 274.20,179.02 C276.57,179.02 279.12,179.42 279.88,179.90 C282.39,181.50 280.10,182.77 275.62,182.26 C271.67,181.82 271.02,182.05 269.46,184.42 C268.05,186.58 267.93,187.55 268.85,189.57 C270.23,192.61 273.70,194.05 276.82,192.87 C280.04,191.66 281.00,191.78 281.00,193.40 C281.00,194.17 279.58,195.30 277.85,195.90 ZM 290.44 192.73 C293.09,194.18 296.23,192.85 297.83,189.60 C298.97,187.28 298.93,186.54 297.56,184.45 C294.69,180.08 286.98,182.24 287.02,187.40 C287.03,189.98 287.92,191.35 290.44,192.73 ZM 369.00 189.07 C369.00,194.56 368.69,196.00 367.50,196.00 C366.31,196.00 366.00,194.56 366.00,189.00 L 366.00 182.00 L 363.00 182.00 C360.00,179.30 361.51,179.00 367.58,179.00 C373.20,179.00 375.06,179.32 374.76,180.25 C374.53,180.94 373.14,181.64 371.67,181.82 C369.06,182.13 369.00,182.30 369.00,189.07 ZM 466.67 194.33 C467.77,195.44 472.52,195.08 473.80,193.80 C474.46,193.14 475.00,191.79 475.00,190.80 C475.00,189.33 474.17,189.00 470.50,189.00 C466.45,189.00 466.00,189.23 466.00,191.33 C466.00,192.62 466.30,193.97 466.67,194.33 ZM 466.00 184.06 C466.00,186.99 466.17,187.11 469.75,186.81 C473.01,186.54 473.54,186.14 473.82,183.75 C474.12,181.15 473.91,181.00 470.07,181.00 C466.20,181.00 466.00,181.15 466.00,184.06 ZM 399.00 185.00 C399.00,187.66 399.34,188.00 401.96,188.00 C403.82,188.00 405.30,187.31 405.92,186.15 C407.21,183.73 405.50,182.00 401.80,182.00 C399.36,182.00 399.00,182.38 399.00,185.00 ZM 483.00 187.50 C483.00,192.50 482.59,196.00 482.00,196.00 C481.41,196.00 481.00,192.50 481.00,187.50 C481.00,182.50 481.41,179.00 482.00,179.00 C482.59,179.00 483.00,182.50 483.00,187.50 ZM 381.00 188.69 C381.00,190.07 384.57,190.53 385.32,189.25 C385.57,188.84 385.34,187.38 384.81,186.00 C383.89,183.57 383.82,183.55 382.43,185.44 C381.64,186.51 381.00,187.97 381.00,188.69 Z" fill="rgb(40,40,40)"/>
<path d="M 196.50 253.95 C188.80,254.52 178.00,254.93 172.50,254.85 L 162.50 254.71 L 175.00 253.91 C206.40,251.92 232.97,245.41 239.42,238.13 C241.34,235.96 241.34,235.94 237.92,232.40 C233.19,227.48 223.28,222.09 212.01,218.30 C199.91,214.23 202.40,214.12 217.56,218.06 C234.78,222.53 247.05,228.25 255.87,235.92 L 259.24 238.85 L 254.18 241.41 C242.71,247.22 219.75,252.21 196.50,253.95 ZM 287.00 213.50 C287.68,214.32 288.08,214.93 287.87,214.84 C285.12,213.63 270.98,205.97 272.29,206.39 C273.27,206.71 276.42,207.66 279.29,208.50 C284.28,209.96 288.46,211.95 286.63,211.98 C286.15,211.99 286.32,212.68 287.00,213.50 ZM 241.50 178.23 C240.10,179.26 239.00,179.18 239.00,178.04 C239.00,177.50 239.91,176.59 241.01,175.99 C242.56,175.16 242.97,175.21 242.76,176.21 C242.62,176.92 242.05,177.83 241.50,178.23 Z" fill="rgb(130,112,113)"/>
<path d="M 164.00 235.00 C161.29,235.00 159.04,235.95 155.64,238.55 L 150.99 242.10 L 148.50 239.40 C147.12,237.92 146.00,236.02 146.00,235.19 C146.00,234.35 148.95,228.52 152.55,222.22 C156.16,215.92 158.84,210.51 158.52,210.18 C158.19,209.86 155.24,210.31 151.96,211.19 C148.68,212.07 146.00,212.50 146.00,212.15 C146.00,211.79 146.98,208.17 148.19,204.10 L 150.38 196.69 L 161.04 191.60 L 171.70 186.50 L 176.90 175.63 C179.76,169.65 181.88,164.54 181.61,164.27 C181.34,164.00 179.74,164.76 178.06,165.95 C175.08,168.08 173.00,168.00 173.00,165.76 C173.00,164.58 185.64,143.75 189.70,138.25 L 192.10 135.00 L 201.49 135.00 C206.66,135.00 211.13,135.40 211.43,135.89 C211.74,136.39 208.23,145.05 203.63,155.14 C199.04,165.24 195.60,173.63 195.99,173.78 C196.38,173.94 201.61,171.75 207.60,168.92 C213.60,166.09 220.30,162.98 222.50,162.00 C224.70,161.03 235.62,155.91 246.76,150.62 C257.90,145.33 267.45,141.00 268.00,141.00 C268.97,141.00 277.00,156.08 277.00,157.92 C277.00,158.88 258.12,169.91 246.15,175.93 C244.56,176.74 243.14,177.34 241.98,177.76 C242.35,177.30 242.66,176.71 242.76,176.21 C242.93,175.37 242.68,175.20 241.67,175.66 C243.08,174.64 245.08,173.00 246.48,171.69 C249.43,168.94 249.45,168.90 247.00,169.57 C245.62,169.95 237.52,173.52 229.00,177.51 L 227.37 178.27 C205.48,188.50 197.85,192.07 198.21,193.33 C198.41,194.00 200.90,194.01 204.72,194.03 C204.89,194.03 205.07,194.03 205.25,194.03 C223.01,194.11 242.94,198.94 260.50,207.41 C274.12,213.99 283.00,220.39 283.00,223.66 C283.00,225.84 279.94,228.31 269.51,234.54 C267.78,235.57 266.35,234.94 258.62,229.74 C247.90,222.54 237.90,217.85 226.21,214.56 C215.48,211.54 198.36,209.00 188.69,209.00 L 181.43 209.00 L 174.58 222.00 L 167.72 235.00 ZM 287.00 213.50 C286.32,212.68 286.15,211.99 286.63,211.98 C287.43,211.97 287.08,211.58 286.02,211.03 C292.84,213.85 299.62,217.34 302.31,219.59 C319.35,233.81 297.26,248.69 248.22,256.01 C240.68,257.14 227.30,258.26 218.50,258.51 C201.31,258.99 201.94,258.44 222.00,255.50 C264.33,249.28 294.00,236.48 294.00,224.43 C294.00,220.32 292.67,217.86 287.73,214.77 C287.78,214.80 287.83,214.82 287.87,214.84 C288.08,214.93 287.68,214.32 287.00,213.50 ZM 279.58 208.59 C279.48,208.56 279.39,208.53 279.29,208.50 C276.42,207.66 273.27,206.71 272.29,206.39 C271.71,206.20 274.16,207.60 277.32,209.33 C273.44,207.40 270.78,206.01 271.00,206.02 C271.27,206.02 274.32,206.91 277.77,207.99 C278.36,208.18 278.96,208.37 279.58,208.59 ZM 239.19 177.53 C239.07,177.72 239.00,177.89 239.00,178.04 C239.00,178.16 239.01,178.27 239.04,178.37 C238.71,178.28 238.73,178.00 239.19,177.53 Z" fill="rgb(210,34,41)"/>
<path d="M 0.00 204.00 L 0.00 0.00 L 306.00 0.00 L 612.00 0.00 L 612.00 204.00 L 612.00 408.00 L 306.00 408.00 L 0.00 408.00 L 0.00 204.00 ZM 248.22 256.01 C297.26,248.69 319.35,233.81 302.31,219.59 C298.50,216.41 286.45,210.71 277.77,207.99 C274.32,206.91 271.27,206.02 271.00,206.02 C270.73,206.01 275.04,208.23 280.59,210.94 C291.50,216.27 294.00,218.78 294.00,224.43 C294.00,236.48 264.33,249.28 222.00,255.50 C201.94,258.44 201.31,258.99 218.50,258.51 C227.30,258.26 240.68,257.14 248.22,256.01 ZM 196.50 253.95 C219.75,252.21 242.71,247.22 254.18,241.41 L 259.24 238.85 L 255.87 235.92 C247.05,228.25 234.78,222.53 217.56,218.06 C202.40,214.12 199.91,214.23 212.01,218.30 C223.28,222.09 233.19,227.48 237.92,232.40 C241.34,235.94 241.34,235.96 239.42,238.13 C232.97,245.41 206.40,251.92 175.00,253.91 L 162.50 254.71 L 172.50 254.85 C178.00,254.93 188.80,254.52 196.50,253.95 ZM 164.00 235.00 L 167.72 235.00 L 174.58 222.00 L 181.43 209.00 L 188.69 209.00 C198.36,209.00 215.48,211.54 226.21,214.56 C237.90,217.85 247.90,222.54 258.62,229.74 C266.35,234.94 267.78,235.57 269.51,234.54 C279.94,228.31 283.00,225.84 283.00,223.66 C283.00,220.39 274.12,213.99 260.50,207.41 C242.94,198.94 223.01,194.11 205.25,194.03 C193.59,193.98 193.21,194.24 229.00,177.51 C237.52,173.52 245.62,169.95 247.00,169.57 C249.45,168.90 249.43,168.94 246.48,171.69 C244.83,173.24 242.35,175.24 240.98,176.14 C236.26,179.26 239.82,179.12 246.15,175.93 C258.12,169.91 277.00,158.88 277.00,157.92 C277.00,156.08 268.97,141.00 268.00,141.00 C267.45,141.00 257.90,145.33 246.76,150.62 C235.62,155.91 224.70,161.03 222.50,162.00 C220.30,162.98 213.60,166.09 207.60,168.92 C201.61,171.75 196.38,173.94 195.99,173.78 C195.60,173.63 199.04,165.24 203.63,155.14 C208.23,145.05 211.74,136.39 211.43,135.89 C211.13,135.40 206.66,135.00 201.49,135.00 L 192.10 135.00 L 189.70 138.25 C185.64,143.75 173.00,164.58 173.00,165.76 C173.00,168.00 175.08,168.08 178.06,165.95 C179.74,164.76 181.34,164.00 181.61,164.27 C181.88,164.54 179.76,169.65 176.90,175.63 L 171.70 186.50 L 161.04 191.60 L 150.38 196.69 L 148.19 204.10 C146.98,208.17 146.00,211.79 146.00,212.15 C146.00,212.50 148.68,212.07 151.96,211.19 C155.24,210.31 158.19,209.86 158.52,210.18 C158.84,210.51 156.16,215.92 152.55,222.22 C148.95,228.52 146.00,234.35 146.00,235.19 C146.00,236.02 147.12,237.92 148.50,239.40 L 150.99 242.10 L 155.64 238.55 C159.04,235.95 161.29,235.00 164.00,235.00 ZM 277.85 195.90 C279.58,195.30 281.00,194.17 281.00,193.40 C281.00,191.78 280.04,191.66 276.82,192.87 C273.70,194.05 270.23,192.61 268.85,189.57 C267.93,187.55 268.05,186.58 269.46,184.42 C271.02,182.05 271.67,181.82 275.62,182.26 C280.10,182.77 282.39,181.50 279.88,179.90 C279.12,179.42 276.57,179.02 274.20,179.02 C266.48,178.99 262.27,186.66 266.61,192.85 C269.28,196.67 272.86,197.64 277.85,195.90 ZM 299.64 193.87 C303.11,190.61 302.97,183.90 299.37,181.07 C296.76,179.02 290.96,178.31 287.54,179.62 C285.56,180.38 283.00,185.13 283.00,188.05 C283.00,189.23 284.59,191.79 286.53,193.73 C289.63,196.83 290.49,197.18 293.67,196.67 C295.66,196.34 298.35,195.08 299.64,193.87 ZM 357.91 194.51 C359.17,193.26 359.15,192.99 357.74,192.45 C356.85,192.11 355.33,192.28 354.36,192.82 C352.41,193.91 348.05,192.68 346.79,190.69 C345.43,188.55 345.96,185.35 347.97,183.52 C349.49,182.15 350.88,181.88 353.91,182.37 C356.10,182.72 358.14,182.58 358.47,182.05 C360.01,179.56 349.93,177.90 346.01,179.99 C343.09,181.56 341.54,187.47 343.07,191.18 C345.27,196.49 353.98,198.45 357.91,194.51 ZM 457.75 193.41 C462.93,187.61 458.98,179.00 451.13,179.00 C447.94,179.00 446.68,179.60 444.59,182.08 C440.52,186.91 441.71,192.60 447.38,195.44 C451.26,197.38 454.82,196.68 457.75,193.41 ZM 309.00 191.00 C309.00,188.25 309.41,186.00 309.91,186.00 C310.42,186.00 312.48,188.25 314.50,191.00 C316.69,193.98 318.94,196.00 320.09,196.00 C321.82,196.00 322.00,195.21 322.00,187.50 C322.00,179.74 321.83,179.00 320.05,179.00 C318.41,179.00 318.06,179.82 317.80,184.25 L 317.50 189.50 L 313.54 184.25 C308.54,177.63 306.06,177.31 305.86,183.25 C305.78,185.59 305.66,189.07 305.59,191.00 C305.44,195.29 305.72,196.00 307.56,196.00 C308.62,196.00 309.00,194.69 309.00,191.00 ZM 340.00 195.05 C340.00,194.53 337.86,193.97 335.25,193.80 C331.20,193.54 330.45,193.17 330.18,191.25 C329.89,189.23 330.28,189.00 333.93,189.00 C336.88,189.00 338.00,188.59 338.00,187.50 C338.00,186.42 336.89,186.00 334.00,186.00 C330.70,186.00 330.00,185.66 330.00,184.05 C330.00,182.45 330.82,182.06 334.67,181.80 C337.28,181.63 339.53,180.95 339.76,180.25 C340.06,179.33 338.30,179.00 333.08,179.00 L 326.00 179.00 L 326.00 187.50 L 326.00 196.00 L 333.00 196.00 C336.85,196.00 340.00,195.57 340.00,195.05 ZM 369.00 189.07 C369.00,182.30 369.06,182.13 371.67,181.82 C373.14,181.64 374.53,180.94 374.76,180.25 C375.06,179.32 373.20,179.00 367.58,179.00 C361.51,179.00 360.00,179.30 360.00,180.50 C360.00,181.50 361.00,182.00 363.00,182.00 L 366.00 182.00 L 366.00 189.00 C366.00,194.56 366.31,196.00 367.50,196.00 C368.69,196.00 369.00,194.56 369.00,189.07 ZM 378.36 194.50 C379.17,192.39 386.89,192.47 388.46,194.61 C389.10,195.49 390.33,196.06 391.17,195.86 C393.67,195.28 386.29,179.00 383.54,179.00 C381.73,179.00 378.41,184.73 374.17,195.18 C373.98,195.63 374.72,196.00 375.81,196.00 C376.90,196.00 378.05,195.32 378.36,194.50 ZM 399.00 193.50 C399.00,191.72 399.54,191.00 400.88,191.00 C401.92,191.00 403.51,192.12 404.41,193.50 C405.31,194.88 406.99,196.00 408.14,196.00 C410.15,196.00 410.16,195.90 408.58,193.48 C407.08,191.19 407.07,190.74 408.46,188.75 C410.45,185.91 410.41,183.11 408.35,180.83 C407.10,179.45 405.24,179.00 400.85,179.00 L 395.00 179.00 L 395.00 187.50 C395.00,195.33 395.16,196.00 397.00,196.00 C398.47,196.00 399.00,195.33 399.00,193.50 ZM 423.20 190.25 L 423.50 184.50 L 426.41 189.74 C429.66,195.63 430.55,195.53 433.50,189.01 C434.49,186.80 435.69,185.00 436.15,185.00 C436.62,185.00 437.00,187.48 437.00,190.50 C437.00,193.52 437.45,196.00 438.00,196.00 C438.59,196.00 439.00,192.50 439.00,187.50 C439.00,177.13 437.50,176.33 433.37,184.50 C431.84,187.52 430.22,190.00 429.78,190.00 C429.34,190.00 427.76,187.52 426.28,184.50 C422.34,176.46 421.00,177.22 421.00,187.50 C421.00,197.03 422.73,199.19 423.20,190.25 ZM 475.42 195.39 C477.21,194.71 477.57,189.97 475.95,188.35 C475.22,187.62 475.29,186.47 476.16,184.54 C477.27,182.12 477.19,181.61 475.52,180.39 C474.47,179.63 471.28,179.00 468.42,179.00 L 463.21 179.00 L 463.09 187.50 L 462.97 196.00 L 468.41 196.00 C471.39,196.00 474.55,195.73 475.42,195.39 ZM 483.00 187.50 C483.00,182.50 482.59,179.00 482.00,179.00 C481.41,179.00 481.00,182.50 481.00,187.50 C481.00,192.50 481.41,196.00 482.00,196.00 C482.59,196.00 483.00,192.50 483.00,187.50 ZM 290.44 192.73 C287.92,191.35 287.03,189.98 287.02,187.40 C286.98,182.24 294.69,180.08 297.56,184.45 C298.93,186.54 298.97,187.28 297.83,189.60 C296.23,192.85 293.09,194.18 290.44,192.73 ZM 447.27 193.03 C442.20,188.32 444.40,181.78 451.25,181.20 C457.58,180.65 460.28,187.81 455.55,192.55 C452.58,195.51 450.08,195.66 447.27,193.03 ZM 381.00 188.69 C381.00,187.97 381.64,186.51 382.43,185.44 C383.82,183.55 383.89,183.57 384.81,186.00 C385.34,187.38 385.57,188.84 385.32,189.25 C384.57,190.53 381.00,190.07 381.00,188.69 ZM 399.00 185.00 C399.00,182.38 399.36,182.00 401.80,182.00 C405.50,182.00 407.21,183.73 405.92,186.15 C405.30,187.31 403.82,188.00 401.96,188.00 C399.34,188.00 399.00,187.66 399.00,185.00 ZM 466.67 194.33 C466.30,193.97 466.00,192.62 466.00,191.33 C466.00,189.23 466.45,189.00 470.50,189.00 C474.17,189.00 475.00,189.33 475.00,190.80 C475.00,191.79 474.46,193.14 473.80,193.80 C472.52,195.08 467.77,195.44 466.67,194.33 ZM 466.00 184.06 C466.00,181.15 466.20,181.00 470.07,181.00 C473.91,181.00 474.12,181.15 473.82,183.75 C473.54,186.14 473.01,186.54 469.75,186.81 C466.17,187.11 466.00,186.99 466.00,184.06 Z" fill="rgb(254,254,254)"/>
</g>
</svg>