<?xml version="1.0" standalone="no"?>
<!DOCTYPE svg PUBLIC "-//W3C//DTD SVG 20010904//EN"
 "http://www.w3.org/TR/2001/REC-SVG-20010904/DTD/svg10.dtd">
<svg version="1.0" xmlns="http://www.w3.org/2000/svg"
 width="1536.000000pt" height="1024.000000pt" viewBox="0 0 1536.000000 1024.000000"
 preserveAspectRatio="xMidYMid meet">

<g transform="translate(0.000000,1024.000000) scale(0.100000,-0.100000)"
fill="#000000" stroke="none">
<path d="M4722 6727 c-40 -67 -112 -183 -159 -257 -196 -311 -243 -387 -243
-398 0 -16 41 -42 65 -42 11 0 62 32 113 70 66 49 91 64 87 49 -4 -11 -67
-145 -140 -297 l-134 -277 -268 -133 -268 -133 -66 -202 c-36 -111 -65 -204
-63 -206 1 -1 67 15 146 37 170 48 208 56 208 46 0 -12 -237 -432 -311 -551
-22 -34 -39 -73 -39 -86 0 -29 69 -138 100 -160 27 -19 39 -14 115 44 28 20
77 54 109 73 56 34 65 36 143 36 l83 0 30 53 c16 28 96 179 177 335 l148 282
55 0 c162 0 538 -41 748 -81 159 -30 372 -86 502 -132 221 -78 535 -249 734
-399 44 -33 86 -62 93 -65 27 -11 350 183 388 233 13 17 25 48 27 69 3 38 1
41 -82 107 -150 122 -345 234 -615 353 -400 178 -803 267 -1270 281 -110 3
-206 8 -214 10 -22 7 244 135 1039 501 102 46 227 104 278 128 50 24 92 43 92
41 0 -2 -87 -76 -266 -224 -71 -59 -95 -92 -69 -92 25 0 372 181 655 342 140
80 269 153 287 162 l32 16 -116 227 c-64 126 -117 230 -119 232 -2 2 -40 -15
-86 -37 -203 -98 -738 -352 -743 -352 -2 0 -74 -34 -160 -75 -86 -41 -158 -75
-159 -75 -4 0 -537 -251 -633 -298 -35 -17 -63 -26 -63 -21 0 5 50 119 111
252 61 133 144 316 184 407 41 91 89 200 109 243 20 43 36 80 36 83 0 2 -120
4 -267 4 l-268 0 -73 -123z"/>
<path d="M6807 5756 c-60 -17 -115 -60 -147 -117 -33 -59 -34 -155 -2 -217 66
-127 270 -159 380 -59 l22 21 -30 27 -30 28 -37 -24 c-43 -30 -108 -33 -159
-9 -39 19 -74 82 -74 135 0 111 139 178 235 113 l38 -25 28 27 c28 26 28 28
11 47 -43 49 -156 75 -235 53z"/>
<path d="M7278 5756 c-73 -20 -122 -58 -152 -117 -79 -160 28 -332 208 -333
108 0 190 46 227 129 24 53 24 147 0 200 -44 98 -171 152 -283 121z m140 -96
c46 -28 76 -97 67 -153 -19 -110 -171 -157 -247 -75 -51 55 -56 129 -13 195
35 52 134 69 193 33z"/>
<path d="M8751 5754 c-111 -30 -163 -100 -165 -219 -1 -131 66 -207 201 -230
54 -9 140 16 183 51 l31 27 -26 27 -27 28 -41 -24 c-106 -61 -227 4 -227 121
0 54 25 99 69 123 51 29 104 28 157 -3 l43 -25 28 24 28 24 -20 23 c-47 52
-151 76 -234 53z"/>
<path d="M7662 5538 l3 -223 43 -3 42 -3 2 98 c2 54 2 119 1 146 0 26 2 47 6
46 3 0 56 -64 116 -142 l110 -142 45 0 45 0 0 220 0 220 -45 0 -45 0 -2 -135
c-1 -74 -2 -139 -3 -144 0 -5 -10 4 -22 20 -12 16 -64 82 -116 147 l-93 117
-45 0 -44 0 2 -222z"/>
<path d="M8187 5754 c-4 -4 -7 -106 -7 -226 l0 -218 170 0 170 0 0 40 0 40
-120 0 -120 0 0 55 0 55 105 0 105 0 0 34 0 34 -95 7 c-51 4 -99 4 -105 0 -6
-4 -10 13 -10 49 l0 56 121 0 120 0 -3 38 -3 37 -161 3 c-88 1 -163 -1 -167
-4z"/>
<path d="M9030 5720 l0 -40 70 0 70 0 0 -185 0 -185 45 0 45 0 2 183 3 182 73
3 72 3 0 39 0 40 -190 0 -190 0 0 -40z"/>
<path d="M9561 5738 c-5 -13 -48 -108 -96 -213 -48 -104 -89 -196 -92 -202 -4
-10 9 -13 44 -13 48 0 49 1 71 45 l22 45 105 0 106 0 19 -45 c19 -45 19 -45
70 -45 27 0 50 1 50 3 0 2 -25 59 -56 128 -30 68 -74 168 -96 222 l-40 97 -49
0 c-42 0 -51 -3 -58 -22z m94 -178 l33 -80 -74 0 -74 0 26 58 c14 31 31 70 36
85 6 15 13 26 15 23 3 -3 20 -41 38 -86z"/>
<path d="M9910 5536 l0 -226 45 0 45 0 0 70 0 70 49 0 49 0 45 -66 c45 -65 46
-66 96 -69 28 -2 51 0 51 4 0 4 -22 38 -49 76 l-48 69 31 21 c40 27 60 68 60
128 0 54 -23 91 -75 122 -28 16 -57 20 -166 23 l-133 4 0 -226z m260 119 c20
-18 27 -69 12 -91 -15 -23 -53 -34 -116 -34 l-66 0 0 76 0 77 75 -5 c53 -4 81
-10 95 -23z"/>
<path d="M10550 5536 l0 -226 25 0 25 0 0 165 c0 91 3 165 8 165 4 0 40 -65
80 -145 52 -104 77 -145 89 -145 13 0 40 43 95 153 l78 152 0 -173 0 -173 28
3 27 3 0 220 0 220 -30 0 c-29 0 -34 -7 -110 -157 -44 -87 -82 -158 -85 -158
-3 0 -41 71 -85 158 -77 151 -81 157 -112 160 l-33 3 0 -225z"/>
<path d="M11213 5735 c-122 -62 -159 -215 -80 -332 43 -63 101 -93 181 -93
144 1 234 98 224 242 -9 123 -83 197 -206 205 -58 4 -74 1 -119 -22z m198 -60
c88 -58 96 -202 14 -274 -39 -33 -88 -46 -143 -37 -131 21 -178 205 -76 300
55 51 138 56 205 11z"/>
<path d="M11628 5618 c-2 -79 -2 -179 -1 -223 l1 -80 123 1 c150 0 192 14 215
70 22 53 11 97 -34 134 -20 16 -31 30 -24 30 19 0 52 61 52 98 0 42 -41 86
-96 101 -21 6 -83 11 -136 11 l-98 0 -2 -142z m227 78 c41 -18 55 -57 34 -95
-18 -31 -44 -39 -136 -40 l-73 -1 0 68 c0 38 3 72 7 75 12 13 133 7 168 -7z
m39 -207 c32 -25 35 -70 7 -98 -21 -21 -99 -35 -171 -29 l-45 3 -3 73 -3 72
94 0 c80 0 98 -3 121 -21z"/>
<path d="M12070 5535 l0 -225 25 0 25 0 0 225 0 225 -25 0 -25 0 0 -225z"/>
<path d="M6815 5050 c315 -106 528 -254 566 -393 57 -214 -330 -473 -983 -657
-293 -83 -797 -174 -1138 -205 -91 -8 -187 -17 -214 -20 -118 -13 -516 -26
-671 -21 -160 4 -164 4 -65 -6 129 -12 976 -16 1155 -5 1193 71 2084 324 2236
634 32 63 31 150 0 211 -84 164 -316 296 -763 435 -210 66 -289 83 -123 27z"/>
<path d="M5050 4843 c116 -26 363 -103 460 -144 189 -80 334 -168 439 -265 81
-75 108 -118 91 -148 -30 -56 -199 -151 -374 -210 -249 -84 -628 -159 -961
-190 -33 -4 -89 -9 -125 -12 -36 -4 -193 -9 -350 -13 l-285 -8 330 -1 c404 -2
594 8 970 49 337 38 655 106 917 195 127 44 328 131 328 143 0 11 -102 106
-165 153 -258 193 -661 345 -1175 442 -144 28 -208 33 -100 9z"/>
<path d="M4113 3763 c9 -2 25 -2 35 0 9 3 1 5 -18 5 -19 0 -27 -2 -17 -5z"/>
<path d="M4178 3763 c7 -3 16 -2 19 1 4 3 -2 6 -13 5 -11 0 -14 -3 -6 -6z"/>
</g>
</svg>
